<svg width="402" height="234" viewBox="0 0 402 234" fill="none" xmlns="http://www.w3.org/2000/svg">
<path d="M0 55.6976L106.682 50.1066L109.478 103.448L50.1275 195.704L114.137 192.349L116 227.91L9.31829 233.501L7.45463 197.94L73.3571 98.0307L72.8073 87.5403L37.4244 89.3946L38.3562 107.175L2.79549 109.039L0 55.6976Z" fill="#0EC742"/>
<path d="M147.716 47.9561L254.398 42.3651L263.716 220.169L157.034 225.76L147.716 47.9561ZM185.14 81.6532L190.731 188.335L226.292 186.472L220.701 79.7895L185.14 81.6532Z" fill="#0EC742"/>
<path d="M296.965 109.511L369.555 1.36335L395.569 0L322.979 108.147L296.965 109.511ZM291.512 5.45341L333.135 3.27204L335.316 44.8949L293.693 47.0763L291.512 5.45341ZM302.463 15.3138L303.553 36.1252L324.365 35.0345L323.274 14.2231L302.463 15.3138ZM357.218 64.6157L398.841 62.4343L401.022 104.057L359.399 106.239L357.218 64.6157ZM368.169 74.4761L369.26 95.2875L390.071 94.1968L388.981 73.3854L368.169 74.4761Z" fill="#0EC742"/>
</svg>
