<svg width="104" height="37" viewBox="0 0 104 37" fill="none" xmlns="http://www.w3.org/2000/svg">
<path d="M19.3846 7.38461H7.38462V12.2954H0L0 0L27.6923 0V7.38461L12 36.9231H3.69231L19.3846 7.38461Z" fill="#0EC742"/>
<path d="M36.2062 0L58.3601 0V36.9231H36.2062V0ZM43.5909 7.38461V29.5385H50.9755V7.38461H43.5909Z" fill="#0EC742"/>
<path d="M66.8812 36.9231L94.5736 0L103.804 0L76.112 36.9231H66.8812ZM66.8812 0L81.6505 0V14.7692H66.8812V0ZM70.5736 3.69231V11.0769H77.9582V3.69231H70.5736ZM89.0351 22.1538H103.804V36.9231H89.0351V22.1538ZM92.7274 25.8462V33.2308H100.112V25.8462H92.7274Z" fill="#0EC742"/>
</svg>
