<svg width="402" height="234" viewBox="0 0 402 234" fill="none" xmlns="http://www.w3.org/2000/svg">
<path d="M74.8488 123.092L72.9851 87.5309L37.4244 89.3946L39.288 124.955L74.8488 123.092ZM9.31829 233.501L5.59097 162.38L22.4395 143.668L3.72732 126.819L0 55.6975L106.682 50.1066L110.409 121.228L93.5609 139.94L112.273 156.789L116 227.91L9.31829 233.501ZM41.1517 160.516L43.0154 196.077L78.5761 194.213L76.7124 158.652L41.1517 160.516Z" fill="#00B3E8"/>
<path d="M147.49 47.9679L254.172 42.3769L263.491 220.181L156.808 225.771L147.49 47.9679ZM184.915 81.665L190.505 188.347L226.066 186.483L220.475 79.8013L184.915 81.665Z" fill="#00B3E8"/>
<path d="M296.965 109.511L369.554 1.36335L395.569 0L322.979 108.147L296.965 109.511ZM291.512 5.45341L333.134 3.27204L335.316 44.8949L293.693 47.0763L291.512 5.45341ZM302.463 15.3138L303.553 36.1252L324.365 35.0345L323.274 14.2231L302.463 15.3138ZM357.218 64.6157L398.841 62.4343L401.022 104.057L359.399 106.239L357.218 64.6157ZM368.169 74.4761L369.26 95.2875L390.071 94.1968L388.98 73.3854L368.169 74.4761Z" fill="#00B3E8"/>
</svg>
