<svg width="438" height="249" viewBox="0 0 438 249" fill="none" xmlns="http://www.w3.org/2000/svg">
<rect x="167" y="40" width="112" height="101" fill="white"/>
<path d="M154.83 89.2746L154.951 150.724H284.561L284.648 89.2746L284.787 27.8604H154.69L154.83 89.2746ZM264.625 47.1013V73.1331H235.964L207.25 73.2201V104.563L219.869 104.702H232.488V98.5729L222.98 98.4336L213.525 98.2943L213.386 88.8044L213.247 79.2797H264.625V130.769L219.869 130.595H175.113L174.852 47.1709L264.625 47.1013Z" fill="#2A2A2B"/>
<path d="M40.376 172.576H67.5076L92.2581 228.54H73C69.8193 224.326 64.8831 222.185 58.2436 222.132H37.6646L34.8836 228.54H15.6429L40.376 172.576ZM53.9505 185.287L44.7734 206.182H58.261C59.9403 206.181 61.6179 206.286 63.2841 206.496L53.881 185.287H53.9505Z" fill="white"/>
<path d="M120.259 172.576C127.731 172.351 135.124 174.156 141.655 177.8C144.987 179.743 147.811 182.453 149.893 185.704C151.975 188.955 153.256 192.656 153.63 196.501H135.571C133.972 192.032 129.795 189.42 123.04 188.665C122.111 188.562 121.176 188.51 120.241 188.509C114.552 188.509 110.271 189.919 107.397 192.74C106.366 193.756 105.556 194.975 105.021 196.321C104.485 197.667 104.235 199.11 104.286 200.558C104.26 202.079 104.544 203.59 105.12 204.998C105.601 206.174 106.29 207.254 107.154 208.185C108.012 209.055 109.011 209.773 110.108 210.309C111.12 210.833 112.179 211.258 113.272 211.58C114.302 211.877 115.354 212.093 116.418 212.224C117.582 212.381 118.399 212.486 118.851 212.503C119.303 212.52 119.772 212.503 120.241 212.503C125.838 212.503 130.062 211.11 132.93 208.498H120.589V200.506H153.856C153.856 212.811 148.219 221.151 136.945 225.528C131.615 227.547 125.956 228.551 120.259 228.488C110.989 228.488 103.359 226.41 97.3681 222.254C90.3462 217.344 86.8063 210.094 86.7484 200.506C86.7484 188.247 92.3856 179.907 103.66 175.484C108.961 173.471 114.59 172.467 120.259 172.524V172.576Z" fill="white"/>
<path d="M156.255 172.576H215.315V188.561H173.81V192.566H215.315V208.551H173.81V212.538H215.315V228.54H156.255V172.576Z" fill="white"/>
<path d="M217.783 172.576H243.49L267.267 201.115V172.576H284.822V228.54H267.267L235.338 190.233V228.54H217.783V172.576Z" fill="white"/>
<path d="M320.818 172.576C328.284 172.351 335.672 174.156 342.196 177.8C345.529 179.744 348.352 182.453 350.434 185.704C352.516 188.956 353.797 192.656 354.172 196.501H336.13C334.549 192.026 330.36 189.414 323.616 188.665C322.687 188.563 321.753 188.511 320.818 188.509C315.117 188.509 310.835 189.919 307.973 192.74C306.943 193.746 306.134 194.956 305.599 196.294C305.063 197.631 304.812 199.066 304.862 200.506C304.836 202.028 305.12 203.538 305.696 204.946C306.171 206.126 306.86 207.206 307.73 208.133C308.585 209.007 309.584 209.726 310.685 210.257C311.69 210.78 312.744 211.206 313.831 211.528C314.861 211.824 315.913 212.039 316.976 212.172C318.158 212.329 318.975 212.434 319.427 212.451C319.879 212.469 320.331 212.451 320.818 212.451C326.831 212.451 331.246 210.919 334.062 207.889C335.008 206.886 335.741 205.701 336.217 204.406H354.172C352.955 215.179 346.808 222.405 335.731 226.085C330.916 227.653 325.88 228.435 320.818 228.401C311.548 228.401 303.912 226.323 297.91 222.167C290.888 217.257 287.348 210.008 287.29 200.419C287.29 188.161 292.933 179.82 304.219 175.397C309.519 173.383 315.149 172.379 320.818 172.437V172.576Z" fill="white"/>
<path d="M345.394 172.576H367.816L386.014 195.352L404.125 172.576H426.633L394.791 212.538V228.54H377.236V212.538L345.394 172.576Z" fill="white"/>
</svg>
