<svg width="92" height="15" viewBox="0 0 92 15" fill="none" xmlns="http://www.w3.org/2000/svg">
<path d="M91.7071 8.07136C92.0976 7.68083 92.0976 7.04767 91.7071 6.65714L85.3431 0.293183C84.9526 -0.0973418 84.3195 -0.0973418 83.9289 0.293183C83.5384 0.683707 83.5384 1.31687 83.9289 1.7074L89.5858 7.36425L83.9289 13.0211C83.5384 13.4116 83.5384 14.0448 83.9289 14.4353C84.3195 14.8258 84.9526 14.8258 85.3431 14.4353L91.7071 8.07136ZM0 7.36426L8.74228e-08 8.36426L91 8.36425L91 7.36425L91 6.36425L-8.74228e-08 6.36426L0 7.36426Z" fill="url(#paint0_linear_1_827)"/>
<defs>
<linearGradient id="paint0_linear_1_827" x1="0" y1="7.36426" x2="91" y2="7.36425" gradientUnits="userSpaceOnUse">
<stop stop-color="#5F0EC7"/>
<stop offset="1" stop-color="#FF7A00"/>
</linearGradient>
</defs>
</svg>
