<svg width="938" height="229" viewBox="0 0 938 229" fill="none" xmlns="http://www.w3.org/2000/svg">
<path d="M6.65688 228.707C7.04738 229.098 7.68056 229.098 8.07106 228.707L14.435 222.343C14.8256 221.953 14.8256 221.32 14.435 220.929C14.0445 220.538 13.4113 220.538 13.0208 220.929L7.36397 226.586L1.70711 220.929C1.3166 220.538 0.683425 220.538 0.292922 220.929C-0.0976416 221.32 -0.0976415 221.953 0.292922 222.343L6.65688 228.707ZM7.36396 160.974L6.36396 160.974L6.36397 228L7.36397 228L8.36397 228L8.36396 160.974L7.36396 160.974ZM936.364 -7.62939e-05L935.364 -7.62065e-05L935.364 135.026L936.364 135.026L937.364 135.026L937.364 -7.63814e-05L936.364 -7.62939e-05ZM923.39 148L923.39 147L20.3377 147L20.3377 148L20.3377 149L923.39 149L923.39 148ZM936.364 135.026L935.364 135.026C935.364 141.639 930.003 147 923.39 147L923.39 148L923.39 149C931.108 149 937.364 142.744 937.364 135.026L936.364 135.026ZM7.36396 160.974L8.36396 160.974C8.36396 154.361 13.7248 149 20.3377 149L20.3377 148L20.3377 147C12.6202 147 6.36396 153.256 6.36396 160.974L7.36396 160.974Z" fill="url(#paint0_linear_1_823)"/>
<defs>
<linearGradient id="paint0_linear_1_823" x1="936.364" y1="229.3" x2="7.36397" y2="229.3" gradientUnits="userSpaceOnUse">
<stop stop-color="#FF7A00"/>
<stop offset="1" stop-color="#0EC742"/>
</linearGradient>
</defs>
</svg>
