<svg width="938" height="132" viewBox="0 0 938 132" fill="none" xmlns="http://www.w3.org/2000/svg">
<path d="M6.65688 131.707C7.04738 132.098 7.68056 132.098 8.07106 131.707L14.435 125.343C14.8256 124.953 14.8256 124.32 14.435 123.929C14.0445 123.538 13.4113 123.538 13.0208 123.929L7.36397 129.586L1.70711 123.929C1.3166 123.538 0.683425 123.538 0.292922 123.929C-0.0976416 124.32 -0.0976415 124.953 0.292922 125.343L6.65688 131.707ZM7.36396 64.9737L6.36396 64.9737L6.36397 131L7.36397 131L8.36397 131L8.36396 64.9737L7.36396 64.9737ZM936.364 -7.62939e-05L935.364 -7.62065e-05L935.364 39.0262L936.364 39.0262L937.364 39.0262L937.364 -7.63814e-05L936.364 -7.62939e-05ZM923.39 52L923.39 51L20.3377 51L20.3377 52L20.3377 53L923.39 53L923.39 52ZM936.364 39.0262L935.364 39.0262C935.364 45.6391 930.003 51 923.39 51L923.39 52L923.39 53C931.108 53 937.364 46.7437 937.364 39.0262L936.364 39.0262ZM7.36396 64.9737L8.36396 64.9737C8.36396 58.3608 13.7248 53 20.3377 53L20.3377 52L20.3377 51C12.6202 51 6.36396 57.2563 6.36396 64.9737L7.36396 64.9737Z" fill="url(#paint0_linear_1_822)"/>
<defs>
<linearGradient id="paint0_linear_1_822" x1="936.364" y1="131.75" x2="7.36397" y2="131.75" gradientUnits="userSpaceOnUse">
<stop stop-color="#00B3E7"/>
<stop offset="1" stop-color="#0EC742"/>
</linearGradient>
</defs>
</svg>
