<svg width="149" height="149" viewBox="0 0 149 149" fill="none" xmlns="http://www.w3.org/2000/svg">
<rect width="135" height="135" transform="translate(0 14.1113) rotate(-6)" fill="#1A8BD8"/>
<path d="M88.1013 44.8126C87.4514 44.3693 86.5066 44.3954 85.5784 44.8863L85.5768 44.8865C84.6006 45.4026 58.0246 60.2652 56.9429 60.8719C56.7444 60.9652 55.0153 61.8259 55.3578 63.3021C55.6651 64.6333 57.1702 65.0398 57.3536 65.0857L64.6837 66.7647C65.3173 68.278 67.6537 73.8611 68.1659 75.0525C68.4852 75.7952 68.9803 76.7631 69.684 76.8991C70.3066 77.067 70.8795 76.7936 71.2328 76.4508L75.1369 71.9838L82.6924 76.6959L82.8692 76.7778C83.3654 76.9381 83.8308 76.9953 84.2644 76.9498C84.5993 76.9145 84.9141 76.8179 85.208 76.6599C86.2091 76.1203 86.5228 75.0794 86.5547 74.9619L88.9212 47.3014C89.0872 45.8199 88.5674 45.1296 88.1013 44.8126ZM71.0256 67.0779L69.3077 73.6937L66.0846 65.9884L82.9622 50.5396L71.0256 67.0779Z" fill="white"/>
<path d="M45.701 108.351L44.7009 98.8351L41.423 99.1797L41.2356 97.3975L49.6692 96.5111L49.8565 98.2933L46.5626 98.6395L47.5628 108.155L45.701 108.351ZM54.4304 107.594C53.2423 107.719 52.2256 107.434 51.3804 106.74C50.5341 106.036 50.048 105.084 49.922 103.885C49.796 102.686 50.0689 101.66 50.7407 100.807C51.4114 99.9424 52.3567 99.4462 53.5766 99.318C54.8072 99.1887 55.8442 99.5141 56.6877 100.294C57.5301 101.064 57.9791 102.121 58.0347 103.467L51.7016 104.132C51.7875 104.745 52.0749 105.235 52.564 105.602C53.053 105.969 53.6423 106.116 54.3318 106.044C55.3078 105.941 55.9371 105.5 56.2197 104.719L58.0496 104.527C57.887 105.327 57.4871 106.013 56.85 106.584C56.2129 107.155 55.4063 107.492 54.4304 107.594ZM53.6827 100.787C53.1099 100.847 52.6339 101.063 52.2547 101.436C51.8851 101.796 51.6731 102.28 51.6189 102.886L56.0266 102.423C55.8346 101.821 55.5262 101.387 55.1014 101.121C54.6754 100.844 54.2026 100.732 53.6827 100.787ZM60.2051 106.826L58.9508 94.892L60.7012 94.7081L61.9555 106.642L60.2051 106.826ZM67.8409 106.185C66.6528 106.309 65.6361 106.025 64.7909 105.331C63.9446 104.626 63.4585 103.674 63.3325 102.476C63.2065 101.277 63.4794 100.251 64.1512 99.3971C64.8219 98.5329 65.7672 98.0367 66.9871 97.9085C68.2177 97.7792 69.2547 98.1046 70.0982 98.8847C70.9406 99.6542 71.3896 100.712 71.4452 102.057L65.1121 102.723C65.198 103.336 65.4854 103.826 65.9745 104.193C66.4635 104.56 67.0528 104.707 67.7423 104.634C68.7183 104.532 69.3476 104.09 69.6302 103.31L71.4601 103.118C71.2975 103.918 70.8977 104.603 70.2605 105.174C69.6234 105.745 68.8168 106.082 67.8409 106.185ZM67.0933 99.3775C66.5204 99.4377 66.0444 99.654 65.6653 100.026C65.2956 100.387 65.0836 100.87 65.0294 101.477L69.4371 101.013C69.2451 100.412 68.9367 99.9774 68.5119 99.711C68.0859 99.434 67.6131 99.3228 67.0933 99.3775ZM77.5781 108.524C76.4961 108.637 75.5771 108.466 74.8212 108.009C74.0759 107.551 73.6056 106.903 73.4104 106.066L75.1289 105.885C75.5324 106.765 76.3123 107.144 77.4686 107.023C78.0945 106.957 78.5873 106.696 78.9469 106.24C79.3182 105.793 79.4649 105.199 79.3869 104.456L79.2882 103.517C79.0715 103.905 78.7473 104.239 78.3157 104.521C77.8841 104.802 77.4031 104.97 76.8727 105.026C75.8012 105.139 74.8535 104.847 74.0296 104.151C73.2151 103.443 72.7482 102.521 72.6289 101.386C72.5107 100.261 72.7769 99.2735 73.4275 98.4221C74.0875 97.5591 74.9533 97.0712 76.0247 96.9586C76.5551 96.9029 77.0607 96.9677 77.5414 97.1532C78.0209 97.328 78.407 97.5824 78.6995 97.9163L78.5874 96.8502L80.3378 96.6662L81.1222 104.129C81.2604 105.445 80.9881 106.476 80.3051 107.223C79.6328 107.97 78.7238 108.403 77.5781 108.524ZM75.2634 102.879C75.7675 103.287 76.3537 103.456 77.022 103.386C77.6903 103.315 78.2286 103.028 78.6368 102.524C79.0439 102.009 79.2106 101.402 79.137 100.702C79.0635 100.002 78.7746 99.4475 78.2705 99.0393C77.7653 98.6205 77.1785 98.4462 76.5102 98.5164C75.8419 98.5867 75.3042 98.8791 74.8971 99.3938C74.4889 99.8979 74.3216 100.5 74.3952 101.2C74.4687 101.9 74.7581 102.46 75.2634 102.879ZM83.5298 104.375L82.6936 96.4186L84.4439 96.2346L84.5928 97.6508C84.6944 97.1897 84.927 96.8006 85.2906 96.4835C85.6647 96.1653 86.0798 95.9822 86.536 95.9343C86.8118 95.9053 87.0421 95.9026 87.2269 95.926L87.4159 97.7241C87.1513 97.6554 86.8545 97.6383 86.5257 97.6729C85.9952 97.7286 85.5673 97.9935 85.2417 98.4675C84.915 98.9308 84.7918 99.5444 84.8721 100.308L85.2801 104.191L83.5298 104.375ZM92.5892 103.583C91.5072 103.697 90.5525 103.39 89.7252 102.662C88.9085 101.932 88.4399 100.995 88.3195 99.8493C88.1991 98.7036 88.4625 97.6892 89.1097 96.806C89.7675 95.9218 90.6375 95.4228 91.7195 95.309C92.2605 95.2522 92.7719 95.3218 93.2537 95.5178C93.7344 95.7033 94.1146 95.9529 94.3943 96.2667L94.2822 95.2006L96.0326 95.0166L96.8688 102.973L95.1184 103.157L95.0064 102.091C94.7981 102.456 94.4787 102.784 94.0482 103.076C93.6165 103.358 93.1302 103.527 92.5892 103.583ZM90.9606 101.406C91.4575 101.847 92.0507 102.031 92.7402 101.959C93.4297 101.886 93.9716 101.583 94.3659 101.048C94.7601 100.513 94.9194 99.885 94.8435 99.1636C94.7677 98.4422 94.4814 97.861 93.9846 97.4198C93.4877 96.9787 92.8945 96.7944 92.205 96.8668C91.5155 96.9393 90.9736 97.2429 90.5793 97.7778C90.1851 98.3126 90.0258 98.9406 90.1017 99.662C90.1775 100.383 90.4638 100.965 90.9606 101.406ZM109.376 101.658L108.906 97.1868C108.838 96.5397 108.663 96.0486 108.381 95.7136C108.11 95.3775 107.741 95.2339 107.274 95.283C106.712 95.3421 106.284 95.6069 105.99 96.0775C105.697 96.5482 105.58 97.1771 105.642 97.9643L106.067 102.006L104.316 102.19L103.846 97.7187C103.778 97.0716 103.603 96.5805 103.321 96.2455C103.05 95.9093 102.681 95.7658 102.214 95.8148C101.631 95.8761 101.188 96.1533 100.886 96.6462C100.594 97.1381 100.492 97.7977 100.579 98.6251L100.99 102.54L99.2401 102.724L98.4039 94.7674L100.154 94.5834L100.268 95.6654C100.669 94.7867 101.379 94.2938 102.397 94.1868C103.596 94.0608 104.473 94.4995 105.029 95.5029C105.199 94.9809 105.498 94.558 105.925 94.2342C106.363 93.9094 106.858 93.7179 107.409 93.66C108.301 93.5663 109.032 93.7951 109.605 94.3462C110.178 94.8974 110.518 95.6874 110.627 96.7164L111.127 101.474L109.376 101.658Z" fill="white"/>
</svg>
