<svg width="149" height="149" viewBox="0 0 149 149" fill="none" xmlns="http://www.w3.org/2000/svg">
<rect width="135" height="135" transform="translate(0 14.1113) rotate(-6)" fill="#4AA0EB"/>
<path d="M88.9416 48.7541C87.7319 49.4511 86.4086 49.9736 84.9958 50.295C86.3651 49.2663 87.3399 47.7628 87.694 46.0551C86.4134 47.0089 84.9609 47.7568 83.3819 48.2445C81.9472 47.005 80.019 46.3389 77.9848 46.5527C74.0784 46.9633 71.2448 50.464 71.6552 54.3692C71.7135 54.9234 71.834 55.4578 72.0075 55.9611C66.0983 56.2845 60.591 54.0158 56.651 50.1022C56.1535 51.2109 55.9324 52.4622 56.0689 53.7604C56.3267 56.2135 57.8021 58.2478 59.8329 59.316C58.67 59.4007 57.5452 59.1972 56.5362 58.7683C56.5394 58.7988 56.5424 58.8266 56.5456 58.8571C56.9058 62.2849 59.6436 64.8877 62.9485 65.1959C62.3728 65.42 61.756 65.572 61.1102 65.6398C60.6554 65.6876 60.2064 65.6892 59.767 65.6536C60.9627 68.3689 63.79 70.1404 66.8909 69.8721C64.6704 72.024 61.7394 73.4756 58.4243 73.8241C57.8541 73.884 57.2871 73.9101 56.7258 73.902C60.0675 75.5793 63.9074 76.3595 67.9027 75.9396C80.9137 74.5721 86.8937 63.0465 85.9113 53.6993C85.8791 53.393 85.8404 53.0887 85.7952 52.7865C87.0733 51.6426 88.1425 50.2713 88.9416 48.7541Z" fill="white"/>
<path d="M54.6517 107.409L53.6516 97.8937L50.3736 98.2383L50.1863 96.4561L58.6199 95.5697L58.8072 97.3519L55.5133 97.6981L56.5135 107.214L54.6517 107.409ZM66.9838 106.113L64.6932 101.157L63.499 106.479L61.8441 106.653L58.3346 98.9782L60.1804 98.7842L62.476 104.093L63.7289 98.4112L65.0655 98.2707L67.4406 103.571L68.614 97.8978L70.4757 97.7021L68.6387 105.939L66.9838 106.113ZM72.4778 95.7381C72.1595 95.7715 71.872 95.6891 71.6152 95.4909C71.3573 95.282 71.211 95.0132 71.1765 94.6843C71.143 94.3661 71.2313 94.0833 71.4413 93.836C71.6501 93.5781 71.9137 93.4324 72.2319 93.3989C72.5608 93.3644 72.8488 93.4521 73.0961 93.662C73.3423 93.8614 73.4821 94.1202 73.5156 94.4385C73.5502 94.7673 73.4683 95.0601 73.2701 95.3169C73.0707 95.5631 72.8066 95.7035 72.4778 95.7381ZM72.6211 105.521L71.7849 97.5645L73.5352 97.3805L74.3715 105.337L72.6211 105.521ZM86.1042 104.184C85.298 104.269 84.6169 104.115 84.0609 103.723C83.5143 103.319 83.1959 102.688 83.1056 101.829L82.7025 97.9936L81.3023 98.1408L81.1384 96.5814L82.5386 96.4342L82.3062 94.2224L84.0565 94.0384L84.289 96.2503L86.5645 96.0111L86.7284 97.5705L84.4529 97.8097L84.8259 101.358C84.8771 101.846 85.0195 102.18 85.2528 102.359C85.4862 102.538 85.8362 102.603 86.303 102.554C86.7061 102.512 87.014 102.431 87.2268 102.312L87.3907 103.872C87.021 104.029 86.5922 104.133 86.1042 104.184ZM80.1848 104.806C79.3786 104.891 78.6975 104.737 78.1415 104.345C77.5949 103.941 77.2765 103.31 77.1862 102.451L76.7831 98.6158L75.1283 98.7897L74.9644 97.2303L76.6192 97.0564L76.3868 94.8446L78.1371 94.6606L78.3696 96.8724L80.295 96.67L80.4589 98.2294L78.5335 98.4318L78.9065 101.98C78.9578 102.468 79.1001 102.802 79.3334 102.981C79.5668 103.16 79.9168 103.225 80.3836 103.176C80.7867 103.134 81.0946 103.053 81.3074 102.935L81.4713 104.494C81.1016 104.651 80.6728 104.755 80.1848 104.806ZM92.4864 103.594C91.2983 103.718 90.2816 103.434 89.4364 102.74C88.5901 102.035 88.104 101.083 87.978 99.8846C87.852 98.6858 88.1249 97.6597 88.7967 96.8061C89.4674 95.9419 90.4127 95.4457 91.6326 95.3175C92.8632 95.1882 93.9002 95.5136 94.7437 96.2937C95.5861 97.0632 96.0351 98.1207 96.0907 99.4663L89.7576 100.132C89.8435 100.745 90.1309 101.235 90.6199 101.602C91.109 101.969 91.6983 102.116 92.3878 102.043C93.3638 101.941 93.993 101.499 94.2757 100.719L96.1056 100.527C95.943 101.327 95.5431 102.012 94.906 102.583C94.2689 103.154 93.4623 103.491 92.4864 103.594ZM91.7387 96.7865C91.1659 96.8467 90.6899 97.063 90.3107 97.4353C89.9411 97.7959 89.7291 98.2794 89.6749 98.8857L94.0826 98.4224C93.8906 97.8205 93.5822 97.3864 93.1574 97.12C92.7314 96.843 92.2585 96.7318 91.7387 96.7865ZM98.2611 102.826L97.4249 94.8696L99.1753 94.6856L99.3241 96.1018C99.4258 95.6407 99.6584 95.2516 100.022 94.9345C100.396 94.6163 100.811 94.4333 101.267 94.3853C101.543 94.3563 101.773 94.3536 101.958 94.3771L102.147 96.1751C101.883 96.1064 101.586 96.0894 101.257 96.1239C100.727 96.1797 100.299 96.4445 99.973 96.9185C99.6463 97.3818 99.5231 97.9954 99.6034 98.7592L100.011 102.642L98.2611 102.826Z" fill="white"/>
</svg>
