<svg width="149" height="149" viewBox="0 0 149 149" fill="none" xmlns="http://www.w3.org/2000/svg">
<rect width="135" height="135" transform="translate(0 14.1113) rotate(-6)" fill="#F83641"/>
<path d="M84.5624 51.6354C84.3845 51.1547 83.9873 50.8194 83.5658 50.748C82.8201 50.6203 79.2407 50.5273 71.7818 51.3112C64.3229 52.0952 60.8445 52.93 60.1349 53.2107C59.7423 53.366 59.4235 53.7765 59.3479 54.2855C59.2411 55.0073 59.0783 58.0024 59.5668 62.6502C60.0553 67.2979 60.8371 70.192 61.092 70.8791C61.2697 71.3582 61.6669 71.6935 62.0865 71.7634C62.8375 71.8922 66.4135 71.9856 73.8724 71.2017C81.3313 70.4177 84.8114 69.5827 85.5193 69.3022C85.9119 69.1469 86.2307 68.7364 86.3063 68.2273C86.4131 67.5056 86.5752 64.5038 86.0874 59.8627C85.5996 55.2216 84.8171 52.3209 84.5624 51.6354ZM87.6865 50.4742C88.7544 53.3483 89.4025 59.5143 89.4025 59.5143C89.4025 59.5143 90.0506 65.6803 89.6035 68.7137C89.3541 70.3906 88.2576 71.8046 86.7435 72.4029C83.9937 73.4896 74.2208 74.5167 74.2208 74.5167C74.2208 74.5167 64.453 75.5434 61.5323 75.0526C59.9196 74.7764 58.5549 73.6227 57.9678 72.0387C56.8998 69.1646 56.2517 62.9986 56.2517 62.9986C56.2517 62.9986 55.6037 56.8326 56.0507 53.7992C56.3001 52.1223 57.3967 50.7083 58.9108 50.11C61.6655 49.0228 71.4334 47.9962 71.4334 47.9962C71.4334 47.9962 81.2062 46.969 84.1219 47.4602C85.7346 47.7365 87.0993 48.8902 87.6865 50.4742ZM70.1218 67.4063L68.9023 55.8035L79.4573 60.5596L70.1218 67.4063Z" fill="white"/>
<path d="M50.5862 107.837L50.0844 103.064L45.1183 96.9896L47.2983 96.7604L50.8134 101.121L53.3609 96.1232L55.5568 95.8924L51.9479 102.884L52.4479 107.642L50.5862 107.837ZM62.6121 105.528C61.9001 106.407 60.9554 106.908 59.7779 107.032C58.6004 107.156 57.5667 106.862 56.6768 106.152C55.7965 105.429 55.2955 104.489 55.174 103.333C55.0525 102.177 55.3477 101.159 56.0597 100.28C56.7812 99.3889 57.7307 98.8816 58.9082 98.7578C60.0857 98.634 61.1146 98.9335 61.995 99.6561C62.8848 100.367 63.3905 101.301 63.5121 102.457C63.6336 103.613 63.3336 104.637 62.6121 105.528ZM59.6073 105.409C60.2968 105.337 60.8393 105.038 61.2346 104.514C61.6395 103.978 61.8046 103.355 61.7299 102.644C61.6552 101.933 61.3647 101.363 60.8583 100.934C60.3615 100.493 59.7683 100.308 59.0788 100.381C58.3786 100.454 57.8261 100.759 57.4213 101.295C57.0259 101.819 56.8656 102.437 56.9403 103.148C57.015 103.858 57.3007 104.434 57.7976 104.875C58.3039 105.305 58.9071 105.483 59.6073 105.409ZM68.5556 106.11C67.6433 106.206 66.8902 105.979 66.2962 105.43C65.7012 104.871 65.3501 104.082 65.2431 103.063L64.743 98.3054L66.4933 98.1215L66.9633 102.593C67.0302 103.229 67.2211 103.719 67.5359 104.061C67.8496 104.393 68.2611 104.532 68.7703 104.478C69.3644 104.416 69.813 104.143 70.1162 103.661C70.4184 103.168 70.5254 102.503 70.4373 101.665L70.0259 97.7502L71.7763 97.5662L72.6125 105.522L70.8621 105.706L70.7484 104.624C70.3686 105.501 69.6377 105.996 68.5556 106.11ZM76.034 105.163L75.0339 95.6472L71.7559 95.9917L71.5686 94.2095L80.0022 93.3231L80.1895 95.1053L76.8956 95.4515L77.8958 104.967L76.034 105.163ZM84.2194 104.463C83.3071 104.559 82.5539 104.333 81.96 103.784C81.3649 103.224 81.0138 102.435 80.9068 101.417L80.4067 96.6591L82.1571 96.4751L82.627 100.947C82.6939 101.583 82.8848 102.072 83.1996 102.415C83.5134 102.746 83.9248 102.885 84.434 102.832C85.0281 102.77 85.4767 102.497 85.78 102.015C86.0821 101.522 86.1891 100.856 86.101 100.018L85.6896 96.1038L87.44 95.9199L88.2762 103.876L86.5258 104.06L86.4121 102.978C86.0323 103.854 85.3014 104.35 84.2194 104.463ZM94.9603 103.334C94.4193 103.391 93.9031 103.328 93.4119 103.143C92.9301 102.947 92.5493 102.692 92.2697 102.378L92.3817 103.445L90.6314 103.629L89.377 91.6943L91.1274 91.5103L91.6575 96.5545C91.8658 96.1894 92.1858 95.8662 92.6174 95.5848C93.0586 95.2918 93.5496 95.1168 94.0906 95.06C95.1727 94.9463 96.1221 95.254 96.9388 95.9833C97.7661 96.7115 98.2399 97.6484 98.3604 98.7941C98.4808 99.9398 98.2121 100.955 97.5542 101.839C96.907 102.722 96.0424 103.221 94.9603 103.334ZM94.4748 101.777C95.1644 101.704 95.7063 101.401 96.1005 100.866C96.4948 100.331 96.654 99.7028 96.5782 98.9814C96.5024 98.2601 96.216 97.6788 95.7192 97.2377C95.2224 96.7965 94.6292 96.6122 93.9396 96.6847C93.2395 96.7583 92.6923 97.0624 92.298 97.5973C91.9038 98.1321 91.7446 98.7601 91.8204 99.4815C91.8962 100.203 92.1825 100.784 92.6794 101.225C93.1762 101.666 93.7747 101.85 94.4748 101.777ZM104.094 102.374C102.906 102.499 101.89 102.215 101.044 101.521C100.198 100.816 99.712 99.864 99.586 98.6653C99.46 97.4666 99.7329 96.4404 100.405 95.5869C101.075 94.7227 102.021 94.2265 103.241 94.0983C104.471 93.9689 105.508 94.2943 106.352 95.0744C107.194 95.8439 107.643 96.9015 107.699 98.247L101.366 98.9126C101.451 99.5257 101.739 100.016 102.228 100.383C102.717 100.749 103.306 100.897 103.996 100.824C104.972 100.722 105.601 100.28 105.884 99.4996L107.714 99.3073C107.551 100.107 107.151 100.793 106.514 101.364C105.877 101.935 105.07 102.272 104.094 102.374ZM103.347 95.5672C102.774 95.6274 102.298 95.8437 101.919 96.2161C101.549 96.5767 101.337 97.0601 101.283 97.6665L105.691 97.2032C105.499 96.6013 105.19 96.1672 104.765 95.9008C104.339 95.6238 103.867 95.5126 103.347 95.5672Z" fill="white"/>
</svg>
