<svg width="88" height="88" viewBox="0 0 88 88" fill="none" xmlns="http://www.w3.org/2000/svg">
<g filter="url(#filter0_d_1_247)">
<rect x="12" y="5" width="64" height="64" rx="8" fill="white"/>
</g>
<g clip-path="url(#clip0_1_247)">
<path d="M35 28H53C53.2652 28 53.5196 28.1054 53.7071 28.2929C53.8946 28.4804 54 28.7348 54 29V45C54 45.2652 53.8946 45.5196 53.7071 45.7071C53.5196 45.8946 53.2652 46 53 46H35C34.7348 46 34.4804 45.8946 34.2929 45.7071C34.1054 45.5196 34 45.2652 34 45V29C34 28.7348 34.1054 28.4804 34.2929 28.2929C34.4804 28.1054 34.7348 28 35 28ZM48.464 40.536L52 37L48.464 33.464L47.05 34.88L49.172 37L47.05 39.121L48.464 40.536ZM38.828 37L40.95 34.879L39.536 33.464L36 37L39.536 40.536L40.95 39.12L38.828 37ZM43.244 42L46.884 32H44.756L41.116 42H43.244Z" fill="#00B3E8"/>
</g>
<defs>
<filter id="filter0_d_1_247" x="0" y="0" width="88" height="88" filterUnits="userSpaceOnUse" color-interpolation-filters="sRGB">
<feFlood flood-opacity="0" result="BackgroundImageFix"/>
<feColorMatrix in="SourceAlpha" type="matrix" values="0 0 0 0 0 0 0 0 0 0 0 0 0 0 0 0 0 0 127 0" result="hardAlpha"/>
<feOffset dy="7"/>
<feGaussianBlur stdDeviation="6"/>
<feComposite in2="hardAlpha" operator="out"/>
<feColorMatrix type="matrix" values="0 0 0 0 0 0 0 0 0 0.703606 0 0 0 0 0.908073 0 0 0 0.05 0"/>
<feBlend mode="normal" in2="BackgroundImageFix" result="effect1_dropShadow_1_247"/>
<feBlend mode="normal" in="SourceGraphic" in2="effect1_dropShadow_1_247" result="shape"/>
</filter>
<clipPath id="clip0_1_247">
<rect width="24" height="24" fill="white" transform="translate(32 25)"/>
</clipPath>
</defs>
</svg>
