<svg width="48" height="48" viewBox="0 0 48 48" fill="none" xmlns="http://www.w3.org/2000/svg">
<g clip-path="url(#clip0_1_676)">
<path d="M19.2539 4.5C18.336 4.5 17.4961 5.07812 17.1602 5.95312L11.4024 21.6914C11.2071 22.1992 11.2071 22.75 11.3828 23.25H8.00393C7.08597 23.25 6.24612 23.8281 5.91018 24.6992L0.140652 40.4414C-0.124973 41.1328 -0.0351293 41.9141 0.386746 42.5273C0.808621 43.1367 1.49612 43.5 2.2305 43.5H11.4844C12.1133 43.5 12.6953 43.2266 13.1133 42.7812C13.5313 43.2266 14.1172 43.5 14.7461 43.5H33.2344C33.8633 43.5 34.4453 43.2266 34.8633 42.7812C35.2813 43.2266 35.8672 43.5 36.4961 43.5H45.75C46.4844 43.5 47.1758 43.1367 47.5938 42.5273C48.0117 41.9141 48.1055 41.1367 47.8438 40.4531L42.086 24.6914C41.7539 23.8281 40.9141 23.25 39.9961 23.25H37.3672C37.543 22.75 37.543 22.1992 37.3516 21.7031L31.586 5.94141C31.2539 5.07812 30.4141 4.5 29.4961 4.5H19.2539ZM19.2539 6H28.5078C28.7539 6 28.9766 6.11719 29.1133 6.32031C29.2578 6.53125 29.2891 6.78516 29.1914 7.03516L23.4336 22.7734C23.3203 23.0625 23.0508 23.25 22.7461 23.25H13.4922C13.2461 23.25 13.0235 23.1328 12.8867 22.9297C12.7422 22.7188 12.711 22.4648 12.8047 22.2148L18.5664 6.47656C18.6758 6.1875 18.9453 6 19.2539 6ZM30.5899 7.58594L35.9492 22.2266C36.0391 22.4648 36.0078 22.7188 35.8633 22.9297C35.7266 23.1328 35.5039 23.25 35.2578 23.25H26.0039C25.6953 23.25 25.4258 23.0625 25.3164 22.7734L25.1719 22.3945L30.5899 7.58594ZM20.2422 8.52734C19.9492 8.54297 19.6797 8.72656 19.5742 9.01953C19.4336 9.41016 19.6328 9.83984 20.0196 9.98047L21.4297 10.4961C21.5157 10.5273 21.6016 10.543 21.6875 10.543C21.9961 10.543 22.2813 10.3555 22.3907 10.0508C22.5352 9.66016 22.336 9.23047 21.9453 9.08984L20.5352 8.57422C20.4414 8.53906 20.3399 8.52344 20.2422 8.52734ZM18.9883 11.9531C18.6992 11.9648 18.4297 12.1523 18.3242 12.4453C18.1797 12.832 18.3789 13.2617 18.7696 13.4062L20.1758 13.9219C20.2617 13.9531 20.3477 13.9688 20.4336 13.9688C20.7383 13.9688 21.0274 13.7773 21.1407 13.4766C21.2813 13.0859 21.0821 12.6562 20.6953 12.5117L19.2852 11.9961C19.1875 11.9609 19.086 11.9453 18.9883 11.9531ZM17.7383 15.375C17.4453 15.3906 17.1758 15.5742 17.0703 15.8672C16.9258 16.2578 17.125 16.6875 17.5157 16.8281L18.9258 17.3438C19.0117 17.375 19.0977 17.3906 19.1836 17.3906C19.4883 17.3906 19.7774 17.2031 19.8867 16.8984C20.0274 16.5078 19.8282 16.0781 19.4414 15.9375L18.0313 15.4219C17.9336 15.3828 17.836 15.3711 17.7383 15.375ZM16.4844 18.8008C16.1914 18.8125 15.9219 19 15.8164 19.293C15.6758 19.6797 15.875 20.1133 16.2657 20.2539L17.6719 20.7695C17.7578 20.8008 17.8438 20.8164 17.9297 20.8164C18.2344 20.8164 18.5235 20.625 18.6328 20.3203C18.7774 19.9336 18.5742 19.5039 18.1875 19.3594L16.7774 18.8438C16.6797 18.8086 16.5821 18.7969 16.4844 18.8008ZM24.375 24.0312C24.7891 24.4766 25.375 24.75 26.0039 24.75H27.6446L24.086 34.4531L20.3594 24.75H22.7461C23.3711 24.75 23.9571 24.4766 24.375 24.0312ZM8.00393 24.75H17.2578C17.5039 24.75 17.7266 24.8672 17.8633 25.0742C18.0078 25.2812 18.0391 25.5352 17.9414 25.7852L12.1758 41.5234C12.0664 41.8125 11.793 42 11.4844 42H2.2305C1.98831 42 1.76565 41.8828 1.62503 41.6797C1.4805 41.4688 1.45315 41.2148 1.5469 40.9688L7.31643 25.2266C7.42581 24.9375 7.69534 24.75 8.00393 24.75ZM29.7539 24.75H39.0078C39.2539 24.75 39.4766 24.8672 39.6133 25.0742C39.7578 25.2812 39.7891 25.5352 39.6914 25.7852L33.9258 41.5234C33.8164 41.8125 33.543 42 33.2344 42H23.9805C23.7383 42 23.5157 41.8828 23.375 41.6797C23.2344 41.4688 23.2032 41.2148 23.2969 40.9688L29.0664 25.2266C29.1758 24.9375 29.4453 24.75 29.7539 24.75ZM35.6953 26.25C35.4024 26.2578 35.1289 26.4414 35.0196 26.7305L34.1524 28.9805C34.0039 29.3672 34.1992 29.8008 34.586 29.9492C34.6758 29.9844 34.7657 30 34.8555 30C35.1563 30 35.4414 29.8164 35.5547 29.5195L36.418 27.2695C36.5664 26.8828 36.375 26.4492 35.9883 26.3008C35.8907 26.2617 35.793 26.2461 35.6953 26.25ZM19.3477 26.3086L23.1758 36.2695C23.211 36.3633 23.2696 36.4414 23.3321 36.5078L21.8907 40.4414C21.6953 40.9453 21.6992 41.5 21.875 42H14.7461C14.4375 42 14.168 41.8125 14.0547 41.5234L13.9102 41.1445L19.3477 26.3086ZM41.0899 26.3359L46.4414 40.9766C46.5313 41.2148 46.5 41.4688 46.3555 41.6797C46.2149 41.8828 45.9961 42 45.75 42H36.4961C36.1875 42 35.918 41.8125 35.8047 41.5234L35.6602 41.1445L41.0899 26.3359ZM33.6524 31.5C33.3633 31.5195 33.0938 31.7109 32.9922 32.0039L30.3907 39.5039C30.2539 39.8945 30.461 40.3203 30.8555 40.457C30.9375 40.4844 31.0196 40.5 31.1016 40.5C31.4102 40.5 31.6992 40.3047 31.8086 39.9961L34.4102 32.4961C34.5469 32.1055 34.3399 31.6758 33.9492 31.543C33.8516 31.5078 33.75 31.4961 33.6524 31.5Z" fill="#00B3E8"/>
</g>
<defs>
<clipPath id="clip0_1_676">
<rect width="48" height="48" fill="white"/>
</clipPath>
</defs>
</svg>
