<svg width="47" height="47" viewBox="0 0 47 47" fill="none" xmlns="http://www.w3.org/2000/svg">
<path d="M28.2718 0C27.8578 0 27.5218 0.335938 27.5218 0.75V4.5C27.5218 5.73828 26.5101 6.75 25.2718 6.75C23.2054 6.75 21.5218 8.43359 21.5218 10.5V12.75H18.9086C18.3695 12.75 17.8265 12.5352 17.3851 12.1523C16.4828 11.3672 15.4554 10.7695 14.3265 10.3711C11.7171 9.45703 8.94371 9.66406 6.51012 10.9453C4.11168 12.2109 2.33434 14.4414 1.63121 17.0586C-0.900039 26.4961 -0.0211332 36.5859 1.16637 43.3867C1.42027 44.8438 2.46324 45.9844 3.89293 46.3672C5.31871 46.7539 6.79527 46.2852 7.74449 45.1484C10.1195 42.3047 12.2718 39.3281 14.1468 36.3008C14.5453 35.6523 15.2757 35.25 16.0492 35.25H30.0648C30.8382 35.25 31.5687 35.6523 31.9671 36.3008C33.8421 39.3281 35.9945 42.3086 38.3695 45.1484C39.1 46.0234 40.1429 46.5 41.2328 46.5C41.5609 46.5 41.8968 46.457 42.225 46.3711C43.6507 45.9883 44.6937 44.8438 44.9437 43.3906C46.1117 36.6992 46.9945 26.7617 44.5765 17.4102C43.2718 12.3594 38.3578 9.08594 33.3812 9.95703C31.639 10.2617 30.014 11.0273 28.6859 12.1719C28.2562 12.5469 27.725 12.75 27.1898 12.75H23.0218V10.5C23.0218 9.26172 24.0336 8.25 25.2718 8.25C27.3421 8.25 29.0218 6.57031 29.0218 4.5V0.75C29.0218 0.335938 28.6859 0 28.2718 0ZM11.3031 11.3164C12.1507 11.3398 12.9984 11.5 13.8304 11.7891C14.7796 12.125 15.6468 12.625 16.4007 13.2852C16.6078 13.4609 16.8304 13.6133 17.0648 13.7422L18.2211 17.2109C18.5257 18.1328 19.3851 18.75 20.3539 18.75H25.6898C26.6625 18.75 27.5179 18.1328 27.8265 17.2109L28.9711 13.7773C29.2132 13.6484 29.4515 13.4961 29.6625 13.3086C30.7875 12.3438 32.1625 11.6914 33.639 11.4336C37.8461 10.6953 42.014 13.4844 43.1273 17.7852C45.475 26.8789 44.6078 36.5898 43.4671 43.1367C43.3148 44.0234 42.7054 44.6914 41.8343 44.9219C40.9671 45.1523 40.1 44.8789 39.5218 44.1875C37.1937 41.3984 35.0765 38.4805 33.2406 35.5078C32.5687 34.4258 31.3539 33.75 30.0648 33.75H16.0492C14.7601 33.75 13.5453 34.4258 12.8734 35.5078C11.0375 38.4805 8.92027 41.3984 6.59215 44.1875C6.01402 44.8789 5.14684 45.1562 4.27965 44.918C3.41246 44.6875 2.79918 44.0195 2.64293 43.1289C1.48668 36.4766 0.623398 26.6211 3.07652 17.4453C3.67027 15.2305 5.17809 13.3438 7.20934 12.2695C8.4984 11.5898 9.89293 11.2695 11.3031 11.3164ZM18.8109 14.25H27.2328L26.4046 16.7383C26.2992 17.0469 26.014 17.25 25.6898 17.25H20.3539C20.0296 17.25 19.7445 17.0469 19.6429 16.7383L18.8109 14.25ZM11.0218 15.75C10.1976 15.75 9.52184 16.4258 9.52184 17.25V19.5H7.27184C6.44762 19.5 5.77184 20.1758 5.77184 21V21.75C5.77184 22.5781 6.44762 23.25 7.27184 23.25H9.52184V25.5C9.52184 26.3281 10.1976 27 11.0218 27H11.7718C12.6 27 13.2718 26.3281 13.2718 25.5V23.25H15.5218C16.35 23.25 17.0218 22.5781 17.0218 21.75V21C17.0218 20.1758 16.35 19.5 15.5218 19.5H13.2718V17.25C13.2718 16.4258 12.6 15.75 11.7718 15.75H11.0218ZM34.6468 15.75C33.6117 15.75 32.7718 16.5898 32.7718 17.625C32.7718 18.6602 33.6117 19.5 34.6468 19.5C35.682 19.5 36.5218 18.6602 36.5218 17.625C36.5218 16.5898 35.682 15.75 34.6468 15.75ZM11.0218 17.25H11.7718V19.5C11.7718 20.3281 12.4476 21 13.2718 21H15.5218V21.75H13.2718C12.4476 21.75 11.7718 22.4258 11.7718 23.25V25.5H11.0218V23.25C11.0218 22.4258 10.35 21.75 9.52184 21.75H7.27184V21H9.52184C10.35 21 11.0218 20.3281 11.0218 19.5V17.25ZM30.8968 19.5C29.8617 19.5 29.0218 20.3398 29.0218 21.375C29.0218 22.4102 29.8617 23.25 30.8968 23.25C31.932 23.25 32.7718 22.4102 32.7718 21.375C32.7718 20.3398 31.932 19.5 30.8968 19.5ZM38.3968 19.5C37.3617 19.5 36.5218 20.3398 36.5218 21.375C36.5218 22.4102 37.3617 23.25 38.3968 23.25C39.432 23.25 40.2718 22.4102 40.2718 21.375C40.2718 20.3398 39.432 19.5 38.3968 19.5ZM34.6468 23.25C33.6117 23.25 32.7718 24.0898 32.7718 25.125C32.7718 26.1602 33.6117 27 34.6468 27C35.682 27 36.5218 26.1602 36.5218 25.125C36.5218 24.0898 35.682 23.25 34.6468 23.25ZM17.7718 26.25C17.3578 26.25 17.0218 26.5859 17.0218 27C17.0218 27.4141 17.3578 27.75 17.7718 27.75H28.2718C28.6859 27.75 29.0218 27.4141 29.0218 27C29.0218 26.5859 28.6859 26.25 28.2718 26.25H17.7718ZM15.5218 29.25C15.1078 29.25 14.7718 29.5859 14.7718 30V31.5C14.7718 31.9141 15.1078 32.25 15.5218 32.25C15.9359 32.25 16.2718 31.9141 16.2718 31.5V30C16.2718 29.5859 15.9359 29.25 15.5218 29.25ZM19.2718 29.25C18.8578 29.25 18.5218 29.5859 18.5218 30V31.5C18.5218 31.9141 18.8578 32.25 19.2718 32.25C19.6859 32.25 20.0218 31.9141 20.0218 31.5V30C20.0218 29.5859 19.6859 29.25 19.2718 29.25ZM23.0218 29.25C22.6078 29.25 22.2718 29.5859 22.2718 30V31.5C22.2718 31.9141 22.6078 32.25 23.0218 32.25C23.4359 32.25 23.7718 31.9141 23.7718 31.5V30C23.7718 29.5859 23.4359 29.25 23.0218 29.25ZM26.7718 29.25C26.3578 29.25 26.0218 29.5859 26.0218 30V31.5C26.0218 31.9141 26.3578 32.25 26.7718 32.25C27.1859 32.25 27.5218 31.9141 27.5218 31.5V30C27.5218 29.5859 27.1859 29.25 26.7718 29.25ZM30.5218 29.25C30.1078 29.25 29.7718 29.5859 29.7718 30V31.5C29.7718 31.9141 30.1078 32.25 30.5218 32.25C30.9359 32.25 31.2718 31.9141 31.2718 31.5V30C31.2718 29.5859 30.9359 29.25 30.5218 29.25Z" fill="#38484E"/>
</svg>
