<svg width="42" height="36" viewBox="0 0 42 36" fill="none" xmlns="http://www.w3.org/2000/svg">
<path d="M2.25 0C1.01172 0 0 1.01172 0 2.25V33.75C0 34.9883 1.01172 36 2.25 36H39.75C40.9883 36 42 34.9883 42 33.75V2.25C42 1.01172 40.9883 0 39.75 0H2.25ZM2.25 1.5H39.75C40.1641 1.5 40.5 1.83594 40.5 2.25V27H34.5V17.25C34.5 16.8359 34.1641 16.5 33.75 16.5H29.25C28.8359 16.5 28.5 16.8359 28.5 17.25V18H24.75C24.3359 18 24 18.3359 24 18.75V19.5H21V17.25C21 16.8359 20.6641 16.5 20.25 16.5H15.75C15.3359 16.5 15 16.8359 15 17.25V18H12V17.25C12 16.8359 11.6641 16.5 11.25 16.5H6.75C6.33594 16.5 6 16.8359 6 17.25V27H1.5V2.25C1.5 1.83594 1.83594 1.5 2.25 1.5ZM33 6C32.8086 6 32.6172 6.07422 32.4688 6.21875C32.1758 6.51172 32.1758 6.98828 32.4688 7.28125L34.1914 9H28.3672C28.0586 8.12891 27.2266 7.5 26.25 7.5C25.2734 7.5 24.4414 8.12891 24.1367 9H19.3672C19.0586 8.12891 18.2266 7.5 17.25 7.5C16.2734 7.5 15.4414 8.12891 15.1367 9H10.3672C10.0586 8.12891 9.22656 7.5 8.25 7.5C7.01562 7.5 6 8.51562 6 9.75C6 10.9883 7.01562 12 8.25 12C9.22656 12 10.0586 11.3711 10.3672 10.5H15.1367C15.4414 11.3711 16.2734 12 17.25 12C18.2266 12 19.0586 11.3711 19.3672 10.5H24.1367C24.4414 11.3711 25.2734 12 26.25 12C27.2266 12 28.0586 11.3711 28.3672 10.5H34.1914L32.4688 12.2188C32.1758 12.5117 32.1758 12.9883 32.4688 13.2812C32.6172 13.4258 32.8086 13.5 33 13.5C33.1953 13.5 33.3828 13.4258 33.5312 13.2812L36.5312 10.2812C36.8242 9.98828 36.8242 9.51172 36.5312 9.21875L33.5312 6.21875C33.3828 6.07422 33.1914 6 33 6ZM8.25 8.92578C8.70312 8.92578 9.07422 9.29688 9.07422 9.75C9.07422 10.2031 8.70312 10.5742 8.25 10.5742C7.79688 10.5742 7.42578 10.2031 7.42578 9.75C7.42578 9.29688 7.79688 8.92578 8.25 8.92578ZM17.25 8.92578C17.7031 8.92578 18.0742 9.29688 18.0742 9.75C18.0742 10.2031 17.7031 10.5742 17.25 10.5742C16.7969 10.5742 16.4258 10.2031 16.4258 9.75C16.4258 9.29688 16.7969 8.92578 17.25 8.92578ZM26.25 8.92578C26.7031 8.92578 27.0742 9.29688 27.0742 9.75C27.0742 10.2031 26.7031 10.5742 26.25 10.5742C25.7969 10.5742 25.4258 10.2031 25.4258 9.75C25.4258 9.29688 25.7969 8.92578 26.25 8.92578ZM7.5 18H10.5V27H7.5V18ZM16.5 18H19.5V27H16.5V18ZM30 18H33V27H30V18ZM12 19.5H15V27H12V19.5ZM25.5 19.5H28.5V27H25.5V19.5ZM21 21H24V27H21V21ZM1.5 28.5H40.5V33.75C40.5 34.1641 40.1641 34.5 39.75 34.5H2.25C1.83594 34.5 1.5 34.1641 1.5 33.75V28.5ZM4.5 30C4.08594 30 3.75 30.3359 3.75 30.75V32.25C3.75 32.6641 4.08594 33 4.5 33C4.91406 33 5.25 32.6641 5.25 32.25V30.75C5.25 30.3359 4.91406 30 4.5 30ZM8.25 30C7.83594 30 7.5 30.3359 7.5 30.75V32.25C7.5 32.6641 7.83594 33 8.25 33C8.66406 33 9 32.6641 9 32.25V30.75C9 30.3359 8.66406 30 8.25 30ZM12 30C11.5859 30 11.25 30.3359 11.25 30.75V32.25C11.25 32.6641 11.5859 33 12 33C12.4141 33 12.75 32.6641 12.75 32.25V30.75C12.75 30.3359 12.4141 30 12 30ZM15.75 30C15.3359 30 15 30.3359 15 30.75V32.25C15 32.6641 15.3359 33 15.75 33C16.1641 33 16.5 32.6641 16.5 32.25V30.75C16.5 30.3359 16.1641 30 15.75 30ZM19.5 30C19.0859 30 18.75 30.3359 18.75 30.75V32.25C18.75 32.6641 19.0859 33 19.5 33C19.9141 33 20.25 32.6641 20.25 32.25V30.75C20.25 30.3359 19.9141 30 19.5 30ZM23.25 30C22.8359 30 22.5 30.3359 22.5 30.75V32.25C22.5 32.6641 22.8359 33 23.25 33C23.6641 33 24 32.6641 24 32.25V30.75C24 30.3359 23.6641 30 23.25 30ZM27 30C26.5859 30 26.25 30.3359 26.25 30.75V32.25C26.25 32.6641 26.5859 33 27 33C27.4141 33 27.75 32.6641 27.75 32.25V30.75C27.75 30.3359 27.4141 30 27 30ZM30.75 30C30.3359 30 30 30.3359 30 30.75V32.25C30 32.6641 30.3359 33 30.75 33C31.1641 33 31.5 32.6641 31.5 32.25V30.75C31.5 30.3359 31.1641 30 30.75 30ZM34.5 30C34.0859 30 33.75 30.3359 33.75 30.75V32.25C33.75 32.6641 34.0859 33 34.5 33C34.9141 33 35.25 32.6641 35.25 32.25V30.75C35.25 30.3359 34.9141 30 34.5 30ZM38.25 30C37.8359 30 37.5 30.3359 37.5 30.75V32.25C37.5 32.6641 37.8359 33 38.25 33C38.6641 33 39 32.6641 39 32.25V30.75C39 30.3359 38.6641 30 38.25 30Z" fill="#00B3E8"/>
</svg>
