<svg width="42" height="46" viewBox="0 0 42 46" fill="none" xmlns="http://www.w3.org/2000/svg">
<path d="M20.2227 0C20.2148 0 20.207 0.00390601 20.1992 0.00390601C20.1797 0.00390601 20.1641 0.011719 20.1445 0.015625C20.0703 0.023438 20 0.046875 19.9297 0.078125C19.918 0.085938 19.9062 0.082031 19.8945 0.089844L0.394531 10.5898C0.332031 10.625 0.277344 10.6641 0.226562 10.7148C0.214844 10.7227 0.210938 10.7383 0.199219 10.7461C0.152344 10.8008 0.113281 10.8594 0.082031 10.9258C0.070312 10.9492 0.058594 10.9688 0.050781 10.9922C0.019531 11.0742 0 11.1562 0 11.2461V11.25V33.75C0 33.8164 0.00781199 33.8828 0.027344 33.9453C0.050781 34.0273 0.089844 34.1055 0.136719 34.1758C0.148438 34.1914 0.160156 34.207 0.175781 34.2227C0.230469 34.2891 0.292969 34.3477 0.367188 34.3945H0.371094C0.375 34.3984 0.375 34.3984 0.375 34.3984L19.8672 45.6445C19.8672 45.6445 19.8672 45.6445 19.8711 45.6445C19.8711 45.6484 19.8711 45.6484 19.8711 45.6484H19.875C19.9102 45.668 19.9453 45.6797 19.9805 45.6914C20.0039 45.7031 20.0312 45.7148 20.0547 45.7227H20.0586C20.1211 45.7422 20.1836 45.75 20.25 45.75C20.3125 45.75 20.3789 45.7422 20.4414 45.7266C20.4531 45.7227 20.4648 45.7148 20.4766 45.7109C20.5234 45.6953 20.5703 45.6797 20.6133 45.6562L40.8633 34.4062C40.8672 34.4023 40.8672 34.3984 40.8711 34.3984C40.8789 34.3945 40.8867 34.3945 40.8945 34.3867C40.9648 34.3477 41.0195 34.2891 41.0703 34.2305C41.0859 34.2148 41.0938 34.1992 41.1055 34.1797C41.1523 34.1172 41.1875 34.0508 41.2109 33.9766C41.2148 33.9688 41.2188 33.957 41.2227 33.9492C41.2383 33.8867 41.25 33.8203 41.25 33.75V11.25C41.25 11.2461 41.2461 11.2422 41.2461 11.2344C41.2461 11.1523 41.2266 11.0742 41.1992 10.9961C41.1875 10.9727 41.1797 10.9453 41.168 10.9219C41.1367 10.8594 41.0977 10.8047 41.0508 10.7539C41.0391 10.7422 41.0352 10.7266 41.0195 10.7148C40.9688 10.6641 40.9102 10.6211 40.8477 10.5859L20.5977 0.085938C20.5664 0.070312 20.5312 0.0625 20.5 0.050781C20.4805 0.042969 20.4648 0.035156 20.4453 0.03125C20.3711 0.011719 20.2969 0 20.2227 0ZM21 1.98438L38.8477 11.2383L31.5117 14.9062L21 9.30078V1.98438ZM19.5 2.00781V9.30078L9.00391 14.8984L2.32422 11.2539L19.5 2.00781ZM20.25 10.6016L29.9062 15.75L20.25 20.8984L10.5938 15.75L20.25 10.6016ZM39.75 12.4648V32.5352L32.25 28.7852V16.2148L39.75 12.4648ZM1.5 12.5156L8.25 16.1953V18C8.25 18.4141 8.58594 18.75 9 18.75C9.41406 18.75 9.75 18.4141 9.75 18V17L19.5 22.1992V34L9.75 28.8008V27C9.75 26.5859 9.41406 26.25 9 26.25C8.58594 26.25 8.25 26.5859 8.25 27V28.8047L1.5 32.4844V12.5156ZM30.75 17V29.25C30.75 29.2891 30.7656 29.3203 30.7695 29.3555C30.7773 29.4102 30.7852 29.4609 30.8008 29.5117C30.8203 29.5586 30.8477 29.5977 30.8711 29.6367C30.8984 29.6797 30.9219 29.7188 30.9531 29.7539C30.9883 29.793 31.0352 29.8242 31.0781 29.8555C31.1094 29.875 31.1289 29.9023 31.1641 29.9219L38.8945 33.7852L21 43.7266V22.1992L30.75 17ZM9 20.25C8.58594 20.25 8.25 20.5859 8.25 21V24C8.25 24.4141 8.58594 24.75 9 24.75C9.41406 24.75 9.75 24.4141 9.75 24V21C9.75 20.5859 9.41406 20.25 9 20.25ZM28.582 29.1758C28.4844 29.1836 28.3867 29.2109 28.293 29.2617C27.9297 29.457 27.7891 29.9102 27.9844 30.2734L28.6914 31.5977C28.8281 31.8516 29.0859 31.9961 29.3555 31.9961C29.4727 31.9961 29.5938 31.9688 29.707 31.9062C30.0742 31.7109 30.2109 31.2578 30.0156 30.8906L29.3086 29.5664C29.1641 29.293 28.8711 29.1484 28.582 29.1758ZM9.00391 30.1016L19.5 35.6992V43.7031L2.28125 33.7695L9.00391 30.1016ZM25.4531 30.8398C25.3594 30.8477 25.2617 30.8789 25.168 30.9258C24.8047 31.1211 24.6641 31.5742 24.8594 31.9414L25.5664 33.2656C25.7031 33.5195 25.9609 33.6602 26.2305 33.6602C26.3477 33.6602 26.4688 33.6328 26.582 33.5742C26.9453 33.3789 27.0859 32.9258 26.8906 32.5586L26.1836 31.2344C26.0391 30.9609 25.7461 30.8164 25.4531 30.8398ZM22.332 32.5078C22.2344 32.5156 22.1367 32.543 22.043 32.5938C21.6797 32.7891 21.5391 33.2422 21.7344 33.6094L22.4414 34.9297C22.5781 35.1836 22.8359 35.3281 23.1055 35.3281C23.2227 35.3281 23.3438 35.3008 23.457 35.2383C23.8203 35.043 23.9609 34.5898 23.7656 34.2227L23.0586 32.9023C22.9141 32.6289 22.6211 32.4805 22.332 32.5078Z" fill="#D242AA"/>
</svg>
