<svg width="44" height="44" viewBox="0 0 44 44" fill="none" xmlns="http://www.w3.org/2000/svg">
<path d="M21.75 0C9.75781 0 0 9.75781 0 21.75C0 33.7461 9.75781 43.5 21.75 43.5C33.7422 43.5 43.5 33.7461 43.5 21.75C43.5 9.75781 33.7422 0 21.75 0ZM21.75 1.5C32.9141 1.5 42 10.5859 42 21.75C42 32.9141 32.9141 42 21.75 42C10.5859 42 1.5 32.9141 1.5 21.75C1.5 10.5859 10.5859 1.5 21.75 1.5ZM21.75 4.5C19.6836 4.5 18 6.18359 18 8.25C18 10.3203 19.6836 12 21.75 12C23.8203 12 25.5 10.3203 25.5 8.25C25.5 6.18359 23.8203 4.5 21.75 4.5ZM21.75 6C22.9883 6 24 7.01172 24 8.25C24 9.48828 22.9883 10.5 21.75 10.5C20.5117 10.5 19.5 9.48828 19.5 8.25C19.5 7.01172 20.5117 6 21.75 6ZM10.582 10.9766C10.2891 10.9883 10.0039 11.0586 9.73047 11.1836C9.18359 11.4375 8.77344 11.8906 8.56641 12.4531L8.53516 12.543C8.12891 13.6562 8.66016 14.8984 9.74219 15.3711L15.1562 17.7539C15.9727 18.1133 16.5 18.9219 16.5 19.8125V22.1328C16.5 23 16.3672 23.8555 16.0977 24.6758L12.5156 35.7227C12.1406 36.8828 12.7422 38.1133 13.8867 38.5312L14.0039 38.5742C15.1367 38.9844 16.3789 38.4414 16.8477 37.3359L21.0273 27.457C21.1445 27.1836 21.418 27 21.7852 27C22.0859 27 22.3555 27.1836 22.4727 27.457L26.6523 37.3359C27.0156 38.1914 27.8477 38.7109 28.7266 38.7109C28.9805 38.7109 29.2383 38.668 29.4922 38.5742L29.6133 38.5312C30.7578 38.1133 31.3594 36.8789 30.9844 35.7227L27.4023 24.6758C27.1367 23.8555 27 23 27 22.1328V19.8125C27 18.9219 27.5273 18.1133 28.3438 17.7539L33.7578 15.3711C34.8398 14.8984 35.3711 13.6523 34.9648 12.5391L34.9336 12.4531C34.7305 11.8906 34.3164 11.4375 33.7695 11.1836C33.2266 10.9297 32.6133 10.9062 32.0508 11.1094L26.8477 13.0039C25.9414 13.332 24.9922 13.5 24.0273 13.5H19.4727C18.5117 13.5 17.5586 13.332 16.6523 13.0039L11.4492 11.1094C11.168 11.0078 10.875 10.9648 10.582 10.9766ZM10.6484 12.4727C10.7461 12.4688 10.8438 12.4844 10.9375 12.5195L16.1406 14.4102C17.2109 14.8008 18.3359 15 19.4727 15H24.0273C25.168 15 26.293 14.8008 27.3633 14.4102L32.5664 12.5195C32.7539 12.4531 32.957 12.4609 33.1367 12.543C33.3203 12.6289 33.4531 12.7812 33.5273 12.9727L33.5586 13.0547C33.6914 13.4258 33.5156 13.8398 33.1523 14L27.7383 16.3789C26.3789 16.9766 25.5 18.3242 25.5 19.8125V22.1328C25.5 23.1523 25.6602 24.168 25.9766 25.1406L29.5586 36.1836C29.6836 36.5703 29.4805 36.9805 29.1016 37.1211L28.9805 37.1641C28.6055 37.3008 28.1914 37.1211 28.0352 36.75L23.8555 26.875C23.5039 26.0391 22.6875 25.5 21.7148 25.5C20.8086 25.5 20 26.0391 19.6445 26.8711L15.4648 36.75C15.3086 37.1211 14.8906 37.3008 14.5156 37.1641L14.3984 37.1211C14.0195 36.9805 13.8164 36.5703 13.9414 36.1836L17.5234 25.1367C17.8398 24.168 18 23.1523 18 22.1328V19.8125C18 18.3242 17.1211 16.9766 15.7617 16.3789L10.3477 14C9.98828 13.8398 9.80859 13.4258 9.94141 13.0586L9.97656 12.9648C10.0469 12.7773 10.1797 12.6289 10.3633 12.543C10.4531 12.5 10.5508 12.4766 10.6484 12.4727ZM3 20.293C2.58594 20.293 2.25 20.6289 2.25 21.043V22.543C2.25 22.957 2.58594 23.293 3 23.293C3.41797 23.293 3.75 22.957 3.75 22.543V21.043C3.75 20.6289 3.41797 20.293 3 20.293ZM6.75 20.293C6.33594 20.293 6 20.6289 6 21.043V22.543C6 22.957 6.33594 23.293 6.75 23.293C7.16797 23.293 7.5 22.957 7.5 22.543V21.043C7.5 20.6289 7.16797 20.293 6.75 20.293ZM10.5 20.293C10.0859 20.293 9.75 20.6289 9.75 21.043V22.543C9.75 22.957 10.0859 23.293 10.5 23.293C10.918 23.293 11.25 22.957 11.25 22.543V21.043C11.25 20.6289 10.918 20.293 10.5 20.293ZM14.25 20.293C13.8359 20.293 13.5 20.6289 13.5 21.043V22.543C13.5 22.957 13.8359 23.293 14.25 23.293C14.668 23.293 15 22.957 15 22.543V21.043C15 20.6289 14.668 20.293 14.25 20.293ZM29.25 20.293C28.8359 20.293 28.5 20.6289 28.5 21.043V22.543C28.5 22.957 28.8359 23.293 29.25 23.293C29.668 23.293 30 22.957 30 22.543V21.043C30 20.6289 29.668 20.293 29.25 20.293ZM33 20.293C32.5859 20.293 32.25 20.6289 32.25 21.043V22.543C32.25 22.957 32.5859 23.293 33 23.293C33.418 23.293 33.75 22.957 33.75 22.543V21.043C33.75 20.6289 33.418 20.293 33 20.293ZM36.75 20.293C36.3359 20.293 36 20.6289 36 21.043V22.543C36 22.957 36.3359 23.293 36.75 23.293C37.168 23.293 37.5 22.957 37.5 22.543V21.043C37.5 20.6289 37.168 20.293 36.75 20.293ZM40.5 20.293C40.0859 20.293 39.75 20.6289 39.75 21.043V22.543C39.75 22.957 40.0859 23.293 40.5 23.293C40.918 23.293 41.25 22.957 41.25 22.543V21.043C41.25 20.6289 40.918 20.293 40.5 20.293Z" fill="#38484E"/>
</svg>
