<svg width="42" height="36" viewBox="0 0 42 36" fill="none" xmlns="http://www.w3.org/2000/svg">
<path d="M2.25 0C1.01172 0 0 1.01172 0 2.25V33.75C0 34.9883 1.01172 36 2.25 36H39.75C40.9883 36 42 34.9883 42 33.75V2.25C42 1.01172 40.9883 0 39.75 0H2.25ZM2.25 1.5H39.75C40.1641 1.5 40.5 1.83594 40.5 2.25V33.75C40.5 34.1641 40.1641 34.5 39.75 34.5H2.25C1.83594 34.5 1.5 34.1641 1.5 33.75V9H32.25C32.668 9 33 8.66406 33 8.25C33 7.83594 32.668 7.5 32.25 7.5H1.5V2.25C1.5 1.83594 1.83594 1.5 2.25 1.5ZM4.5 3C4.08594 3 3.75 3.33594 3.75 3.75V5.25C3.75 5.66406 4.08594 6 4.5 6C4.91797 6 5.25 5.66406 5.25 5.25V3.75C5.25 3.33594 4.91797 3 4.5 3ZM8.25 3C7.83594 3 7.5 3.33594 7.5 3.75V5.25C7.5 5.66406 7.83594 6 8.25 6C8.66797 6 9 5.66406 9 5.25V3.75C9 3.33594 8.66797 3 8.25 3ZM12 3C11.5859 3 11.25 3.33594 11.25 3.75V5.25C11.25 5.66406 11.5859 6 12 6C12.418 6 12.75 5.66406 12.75 5.25V3.75C12.75 3.33594 12.418 3 12 3ZM15.75 3C15.3359 3 15 3.33594 15 3.75V5.25C15 5.66406 15.3359 6 15.75 6C16.168 6 16.5 5.66406 16.5 5.25V3.75C16.5 3.33594 16.168 3 15.75 3ZM19.5 3C19.0859 3 18.75 3.33594 18.75 3.75V5.25C18.75 5.66406 19.0859 6 19.5 6C19.918 6 20.25 5.66406 20.25 5.25V3.75C20.25 3.33594 19.918 3 19.5 3ZM23.25 3C22.8359 3 22.5 3.33594 22.5 3.75V5.25C22.5 5.66406 22.8359 6 23.25 6C23.668 6 24 5.66406 24 5.25V3.75C24 3.33594 23.668 3 23.25 3ZM27 3C26.5859 3 26.25 3.33594 26.25 3.75V5.25C26.25 5.66406 26.5859 6 27 6C27.418 6 27.75 5.66406 27.75 5.25V3.75C27.75 3.33594 27.418 3 27 3ZM30.75 3C30.3359 3 30 3.33594 30 3.75V5.25C30 5.66406 30.3359 6 30.75 6C31.168 6 31.5 5.66406 31.5 5.25V3.75C31.5 3.33594 31.168 3 30.75 3ZM34.5 3C34.0859 3 33.75 3.33594 33.75 3.75V5.25C33.75 5.66406 34.0859 6 34.5 6C34.918 6 35.25 5.66406 35.25 5.25V3.75C35.25 3.33594 34.918 3 34.5 3ZM38.25 3C37.8359 3 37.5 3.33594 37.5 3.75V5.25C37.5 5.66406 37.8359 6 38.25 6C38.668 6 39 5.66406 39 5.25V3.75C39 3.33594 38.668 3 38.25 3ZM35.25 7.5C34.8359 7.5 34.5 7.83594 34.5 8.25C34.5 8.66406 34.8359 9 35.25 9H38.25C38.668 9 39 8.66406 39 8.25C39 7.83594 38.668 7.5 38.25 7.5H35.25ZM23.1328 12.0078C22.8477 12.0547 22.5977 12.2656 22.5234 12.5703L18.0234 30.5703C17.9219 30.9688 18.168 31.3789 18.5703 31.4766C18.6289 31.4961 18.6914 31.5 18.75 31.5C19.0859 31.5 19.3906 31.2734 19.4766 30.9336L23.9766 12.9336C24.0781 12.5312 23.832 12.125 23.4336 12.0234C23.332 11.9961 23.2305 11.9922 23.1328 12.0078ZM14.25 16.5C14.0586 16.5 13.8672 16.5742 13.7188 16.7188L9.21875 21.2188C8.92578 21.5117 8.92578 21.9883 9.21875 22.2812L13.7188 26.7812C13.8672 26.9258 14.0586 27 14.25 27C14.4453 27 14.6328 26.9258 14.7812 26.7812C15.0742 26.4883 15.0742 26.0117 14.7812 25.7188L10.8125 21.75L14.7812 17.7812C15.0742 17.4883 15.0742 17.0117 14.7812 16.7188C14.6328 16.5742 14.4414 16.5 14.25 16.5ZM27.75 16.5C27.5586 16.5 27.3672 16.5742 27.2188 16.7188C26.9258 17.0117 26.9258 17.4883 27.2188 17.7812L31.1914 21.75L27.2188 25.7188C26.9258 26.0117 26.9258 26.4883 27.2188 26.7812C27.3672 26.9258 27.5586 27 27.75 27C27.9453 27 28.1328 26.9258 28.2812 26.7812L32.7812 22.2812C33.0742 21.9883 33.0742 21.5117 32.7812 21.2188L28.2812 16.7188C28.1328 16.5742 27.9414 16.5 27.75 16.5Z" fill="#5F0EC7"/>
</svg>
