<svg width="48" height="48" viewBox="0 0 48 48" fill="none" xmlns="http://www.w3.org/2000/svg">
<path d="M20.25 0C19.0117 0 18 1.01172 18 2.25V11.0117C17.9922 11.0156 17.9765 11.0273 17.9726 11.0352L12.1484 16.1719C11.0234 17.1602 10.2539 18.5234 9.98434 20.0039L8.67184 27.1367C8.07809 30.3594 6.36716 33.3086 3.86325 35.4297L2.29684 36.7578C1.81638 37.1641 1.53122 37.7461 1.49997 38.3789C1.47653 39.0078 1.71872 39.6211 2.16013 40.0664L9.43356 47.3398C9.87888 47.7812 10.4453 48 11.0234 48C11.5273 48 12.039 47.8359 12.4492 47.4883L23.9531 38.0781C24.1797 37.8906 24.4062 37.7031 24.6133 37.5H41.25C42.4883 37.5 43.5 36.4883 43.5 35.25V2.25C43.5 1.01172 42.4883 0 41.25 0H20.25ZM20.25 1.5H41.25C41.664 1.5 42 1.83594 42 2.25V35.25C42 35.6641 41.664 36 41.25 36H26.0547C27.2343 34.5898 28.164 32.9844 28.7929 31.2383L31.2968 24.3086C31.5312 23.6641 31.457 22.9492 31.0976 22.3633C31 22.207 30.8867 22.0664 30.7578 21.9453C30.414 21.5938 29.9531 21.3672 29.4531 21.3086L29.3633 21.3008C27.6211 21.082 25.9062 21.7422 24.7578 23.0625L21.6679 26.6172C21.0586 27.3164 20.3242 27.8789 19.5 28.2656V2.25C19.5 1.83594 19.8359 1.5 20.25 1.5ZM39.75 3C39.3359 3 39 3.33594 39 3.75V6.75C39 7.16406 39.3359 7.5 39.75 7.5C40.164 7.5 40.5 7.16406 40.5 6.75V3.75C40.5 3.33594 40.164 3 39.75 3ZM39.75 9C39.3359 9 39 9.33594 39 9.75V33.75C39 34.1641 39.3359 34.5 39.75 34.5C40.164 34.5 40.5 34.1641 40.5 33.75V9.75C40.5 9.33594 40.164 9 39.75 9ZM18 13.0039V28.8008L15.7968 29.3789C15.4804 29.4609 15.2695 29.7305 15.2461 30.0273C15.2343 30.1133 15.2382 30.2031 15.2617 30.293C15.3672 30.6992 15.7812 30.9297 16.1758 30.8242L18 30.3477L18.6914 30.1641C18.9687 30.0898 19.2383 30 19.5 29.9023C20.7656 29.4219 21.8984 28.6367 22.8008 27.6016L25.8906 24.0469C26.7148 23.1094 27.9375 22.6367 29.1758 22.7852L29.2734 22.8008C29.4961 22.832 29.6992 22.957 29.8203 23.1523C29.9414 23.3477 29.9609 23.582 29.8867 23.7969L27.3828 30.7266C26.664 32.7227 25.5078 34.5312 24.0078 36C23.6836 36.3281 23.3554 36.6289 23.0039 36.9141L22.289 37.5L14.4297 43.9336C14.3945 43.8438 14.3398 43.7539 14.2656 43.6797C13.9726 43.3867 13.5 43.3867 13.207 43.6797L12.1406 44.7461C11.8476 45.0391 11.8476 45.5117 12.1406 45.8008L11.5039 46.3281C11.2031 46.5742 10.7695 46.5547 10.5 46.2852L3.21872 39C3.06638 38.8516 2.99216 38.6562 2.99997 38.4375C3.00778 38.2266 3.10544 38.0391 3.26169 37.8984L3.97653 37.2969C3.96872 37.5 4.03513 37.6953 4.18356 37.8516C4.33591 37.9961 4.53122 38.0703 4.71872 38.0703C4.91013 38.0703 5.10153 37.9961 5.24997 37.8516L6.30856 36.7891C6.60153 36.4961 6.60153 36.0234 6.30856 35.7305C6.20309 35.625 6.06638 35.5664 5.93356 35.5352C8.10153 33.3086 9.57809 30.4805 10.1484 27.4023L10.8359 23.6406L11.4531 20.2773C11.6679 19.125 12.2695 18.0664 13.1484 17.2969L18 13.0039ZM8.43356 38.1602C8.23825 38.1602 8.04684 38.2344 7.89841 38.3789L6.83981 39.4414C6.54685 39.7344 6.54685 40.207 6.83981 40.5C6.98434 40.6484 7.17575 40.7227 7.37106 40.7227C7.56247 40.7227 7.75388 40.6484 7.89841 40.5L8.96091 39.4414C9.25388 39.1484 9.25388 38.6719 8.96091 38.3789C8.81247 38.2344 8.62497 38.1602 8.43356 38.1602ZM11.082 40.8125C10.8906 40.8125 10.6992 40.8828 10.5508 41.0312L9.49216 42.0898C9.19919 42.3828 9.19919 42.8594 9.49216 43.1523C9.63669 43.3008 9.82809 43.3711 10.0195 43.3711C10.2148 43.3711 10.4062 43.2969 10.5508 43.1523L11.6133 42.0938C11.9062 41.8008 11.9062 41.3242 11.6133 41.0312C11.4648 40.8867 11.2734 40.8125 11.082 40.8125Z" fill="#0EC742"/>
</svg>
